<?xml version="1.0" standalone="no"?>
<!DOCTYPE svg PUBLIC "-//W3C//DTD SVG 20010904//EN"
 "http://www.w3.org/TR/2001/REC-SVG-20010904/DTD/svg10.dtd">
<svg version="1.0" xmlns="http://www.w3.org/2000/svg"
 width="512.000000pt" height="512.000000pt" viewBox="0 0 512.000000 512.000000"
 preserveAspectRatio="xMidYMid meet">
<metadata>
Created by potrace 1.14, written by Peter Selinger 2001-2017
</metadata>
<g transform="translate(0.000000,512.000000) scale(0.100000,-0.100000)"
fill="#000000" stroke="none">
<path d="M811 4555 c-6 -8 -8 -2772 -2 -2795 0 -3 158 -5 349 -5 l348 0 0
-593 c-1 -385 3 -596 9 -601 6 -4 163 -7 350 -6 l340 0 3 804 2 804 805 -804
805 -804 248 1 247 0 1 1394 c0 767 -1 1400 -3 1406 -4 11 -670 14 -689 2 -8
-5 -11 -237 -10 -802 1 -437 0 -794 -1 -793 -2 1 -317 317 -702 701 l-700 699
699 698 c384 384 696 700 692 702 -4 2 -226 3 -495 2 l-487 -1 -555 -554
c-305 -305 -555 -550 -556 -545 0 6 -1 255 -2 555 l-2 545 -343 0 c-218 0
-346 -4 -351 -10z"/>
</g>
</svg>
