<?xml version="1.0" standalone="no"?>
<!DOCTYPE svg PUBLIC "-//W3C//DTD SVG 20010904//EN"
 "http://www.w3.org/TR/2001/REC-SVG-20010904/DTD/svg10.dtd">
<svg version="1.0" xmlns="http://www.w3.org/2000/svg"
 width="577.000000pt" height="577.000000pt" viewBox="0 0 577.000000 577.000000"
 preserveAspectRatio="xMidYMid meet">
<metadata>
Created by potrace 1.14, written by Peter Selinger 2001-2017
</metadata>
<g transform="translate(0.000000,577.000000) scale(0.100000,-0.100000)"
fill="#000000" stroke="none">
<path d="M2500 5385 l-385 -385 -5 52 -5 53 -557 1 -558 1 0 -616 0 -616 -495
-495 -495 -495 495 -495 495 -495 0 -670 0 -670 552 1 c304 1 556 2 559 3 4 1
7 47 8 103 1 56 3 103 4 105 2 1 176 -171 387 -382 l385 -385 333 333 332 332
50 -55 49 -54 691 -1 c381 0 696 2 700 5 5 3 -9 26 -32 50 -22 25 -80 88 -128
140 -47 52 -111 122 -140 155 -30 33 -70 77 -90 99 -19 21 -44 48 -55 60 -21
23 -151 167 -200 221 -15 17 -46 50 -68 73 l-40 44 742 742 741 741 -765 765
c-421 421 -765 769 -765 773 0 6 95 113 225 253 40 43 200 218 236 258 24 26
58 63 74 81 17 18 42 46 56 62 l26 30 -654 0 -655 0 -331 331 -332 332 -385
-385z"/>
</g>
</svg>
