<?xml version="1.0" standalone="no"?>
<!DOCTYPE svg PUBLIC "-//W3C//DTD SVG 20010904//EN"
 "http://www.w3.org/TR/2001/REC-SVG-20010904/DTD/svg10.dtd">
<svg version="1.0" xmlns="http://www.w3.org/2000/svg"
 width="512.000000pt" height="512.000000pt" viewBox="0 0 512.000000 512.000000"
 preserveAspectRatio="xMidYMid meet">
<metadata>
Created by potrace 1.14, written by Peter Selinger 2001-2017
</metadata>
<g transform="translate(0.000000,512.000000) scale(0.100000,-0.100000)"
fill="#000000" stroke="none">
<path d="M2225 4780 l-330 -330 -3 40 -3 40 -505 0 -504 0 0 -547 0 -547 -437
-438 -438 -438 438 -438 437 -438 0 -582 0 -582 505 0 505 0 0 77 0 78 335
-335 335 -335 298 298 297 297 40 -40 40 -40 633 2 633 3 -335 367 c-185 202
-336 371 -336 375 0 4 289 297 642 650 l643 643 -678 678 -678 678 281 304
281 305 -590 5 -591 5 -288 288 c-158 158 -289 287 -292 287 -3 0 -154 -149
-335 -330z m-433 -1092 l3 -751 690 749 690 749 464 3 c283 1 461 -1 459 -7
-1 -5 -373 -411 -826 -902 -452 -490 -821 -895 -820 -900 2 -5 393 -435 869
-956 477 -522 888 -972 914 -1001 l47 -52 -509 1 -508 1 -735 806 -735 806 -3
-807 -2 -807 -410 0 -410 0 0 1910 0 1910 410 0 410 0 2 -752z"/>
</g>
</svg>
